<svg xmlns="http://www.w3.org/2000/svg" width="1716" height="611" viewBox="0 0 1716 611">
<g>
<path d="M 258.57 441.94 C250.10,450.14 235.00,443.82 235.00,432.06 C235.00,422.51 248.04,392.25 259.80,374.50 C268.32,361.64 283.71,344.15 296.61,332.69 L 307.71 322.81 L 300.39 315.49 C287.87,302.96 278.87,286.71 276.09,271.57 C274.55,263.18 274.76,249.63 276.56,242.00 C279.04,231.42 284.59,221.43 292.65,213.00 C305.39,199.67 318.48,193.76 335.50,193.66 C346.94,193.59 353.84,195.26 364.02,200.59 C377.12,207.45 387.64,219.79 392.80,234.32 C396.50,244.77 397.09,262.46 394.10,273.35 C390.02,288.24 382.68,299.51 368.30,312.96 C363.57,317.38 359.32,321.00 358.85,321.00 C356.47,321.00 358.90,323.24 367.76,329.24 C388.66,343.38 405.21,360.64 416.08,379.64 L 419.25 385.18 L 423.25 378.85 C436.18,358.40 449.02,345.73 484.50,318.43 C503.94,303.47 515.91,289.45 520.61,276.14 C525.18,263.21 523.06,248.31 514.94,236.15 C496.84,209.04 453.48,213.41 439.50,243.75 C434.18,255.28 433.58,256.17 429.84,258.08 C427.77,259.14 424.82,259.99 423.29,259.98 C419.18,259.96 412.98,256.00 410.79,252.00 C408.01,246.92 408.95,241.43 414.54,230.12 C418.55,222.00 420.71,219.08 428.40,211.40 C435.91,203.89 439.10,201.51 446.69,197.74 C459.36,191.43 468.02,189.65 483.33,190.21 C493.57,190.58 496.87,191.13 504.12,193.66 C529.12,202.40 546.23,223.69 551.01,252.04 C554.10,270.37 547.88,291.70 534.10,310.01 C526.71,319.82 513.50,332.02 493.50,347.48 C465.46,369.14 451.97,383.90 442.09,403.70 C438.19,411.51 434.00,425.03 434.00,429.79 C434.00,436.80 427.46,443.00 420.08,443.00 C412.16,443.00 406.87,438.29 405.50,430.00 C402.28,410.69 388.62,385.70 372.39,369.48 C363.96,361.04 335.76,341.00 332.33,341.00 C328.92,341.00 306.80,361.10 295.24,374.70 C280.60,391.94 269.11,413.08 263.52,433.07 C262.48,436.78 260.83,439.75 258.57,441.94 ZM 1243.14 449.47 C1213.63,455.68 1180.87,442.45 1169.51,419.75 C1167.57,415.87 1166.13,412.54 1166.31,412.35 C1166.62,412.04 1197.18,401.00 1197.72,401.00 C1197.85,401.00 1198.85,402.75 1199.95,404.89 C1206.61,417.95 1226.30,423.59 1241.30,416.72 C1250.81,412.37 1255.00,404.15 1255.00,389.84 L 1255.00 382.00 L 1250.11 385.52 C1235.72,395.85 1212.46,396.57 1193.00,387.29 C1187.36,384.59 1183.63,381.82 1177.97,376.10 C1165.36,363.38 1160.69,351.67 1160.58,332.50 C1160.47,313.49 1165.46,300.51 1177.52,288.41 C1197.98,267.87 1233.76,264.83 1252.43,282.04 L 1257.00 286.25 L 1257.00 274.00 L 1290.00 274.00 L 1289.98 336.25 C1289.96,404.85 1289.82,406.74 1283.84,419.00 C1279.25,428.41 1267.82,439.60 1257.96,444.32 C1253.81,446.31 1247.14,448.63 1243.14,449.47 ZM 821.00 360.94 L 821.00 400.00 L 786.00 400.00 L 786.00 274.00 L 819.00 274.00 L 819.00 287.36 L 822.39 283.40 C833.11,270.88 857.70,267.22 875.71,275.47 C878.65,276.81 883.71,280.44 886.95,283.53 L 892.83 289.14 L 897.06 284.56 C901.97,279.23 912.86,273.49 920.89,272.00 C946.76,267.20 968.82,279.50 975.99,302.71 C977.88,308.82 978.00,311.97 978.00,354.61 L 978.00 400.00 L 944.10 400.00 L 943.50 319.50 L 940.69 313.77 C937.41,307.09 934.14,304.46 927.13,302.84 C916.69,300.43 906.02,305.36 901.86,314.49 C900.20,318.16 900.04,322.00 900.02,359.25 L 900.00 400.00 L 865.06 400.00 L 864.78 359.25 C864.50,318.61 864.49,318.49 862.12,313.66 C857.62,304.53 848.66,300.68 837.35,303.03 C830.10,304.54 823.91,310.33 822.17,317.25 C821.38,320.39 821.00,334.48 821.00,360.94 ZM 733.50 400.55 C725.31,402.76 706.25,403.31 698.00,401.57 C688.74,399.61 679.25,395.82 671.72,391.06 C662.99,385.55 652.36,374.17 647.86,365.50 C647.43,364.66 647.02,363.90 646.65,363.19 C644.58,359.28 643.46,357.15 643.95,355.51 C644.63,353.26 648.35,351.93 656.88,348.16 C664.54,344.77 671.18,342.00 671.65,342.00 C672.12,342.00 673.82,344.36 675.43,347.25 C685.99,366.18 710.41,376.42 728.09,369.35 C739.15,364.92 742.99,350.86 735.33,342.80 C731.27,338.53 729.38,337.72 704.47,329.54 C679.73,321.43 671.99,317.66 663.03,309.37 C643.99,291.74 644.47,258.74 664.04,240.63 C690.61,216.02 742.55,221.01 764.55,250.28 C770.00,257.53 774.24,265.52 773.81,267.70 C773.53,269.07 749.13,280.93 746.50,280.98 C745.95,280.99 744.45,279.02 743.16,276.60 C737.60,266.11 725.30,257.73 713.64,256.48 C699.02,254.91 687.21,260.97 685.09,271.12 C683.47,278.92 687.18,285.99 695.00,289.96 C696.92,290.94 707.95,294.77 719.50,298.47 C743.80,306.25 752.01,310.21 760.71,318.34 C777.17,333.74 779.45,358.71 766.23,378.80 C759.81,388.56 747.43,396.78 733.50,400.55 ZM 1428.47 401.49 C1420.90,403.09 1407.13,403.30 1400.07,401.91 C1368.27,395.67 1347.65,370.15 1347.66,337.00 C1347.66,323.67 1349.15,316.64 1354.22,306.00 C1359.67,294.59 1370.99,283.03 1382.00,277.64 C1404.17,266.80 1433.69,269.40 1451.53,283.78 C1458.85,289.68 1466.82,301.25 1469.93,310.50 C1472.42,317.92 1473.90,336.37 1472.58,343.44 L 1471.91 347.00 L 1384.00 347.00 L 1384.01 349.25 C1384.03,352.80 1388.43,361.20 1392.13,364.70 C1397.94,370.21 1404.30,372.48 1414.00,372.49 C1424.15,372.50 1430.00,370.13 1436.48,363.36 L 1440.58 359.09 L 1453.78 365.29 C1462.14,369.22 1466.99,372.05 1466.99,373.01 C1467.01,375.76 1460.04,384.92 1454.73,389.15 C1447.85,394.61 1437.12,399.66 1428.47,401.49 ZM 1073.01 360.75 L 1073.00 400.00 L 1038.00 400.00 L 1038.00 274.00 L 1071.00 274.00 L 1071.00 288.16 L 1074.25 283.93 C1082.54,273.15 1101.68,268.40 1120.00,272.57 C1136.34,276.28 1149.70,290.60 1152.98,307.89 C1153.58,311.03 1154.00,331.32 1154.00,356.64 L 1154.00 400.00 L 1119.00 400.00 L 1119.00 319.39 L 1116.35 314.08 C1111.71,304.77 1101.96,300.62 1090.38,303.03 C1085.89,303.96 1083.86,305.09 1080.00,308.84 C1076.90,311.85 1074.81,314.92 1074.11,317.50 C1073.40,320.08 1073.01,335.45 1073.01,360.75 ZM 1339.00 225.00 L 1339.00 400.00 L 1304.00 400.00 L 1304.00 225.00 ZM 1024.00 274.00 L 1024.00 400.00 L 990.00 400.00 L 990.00 274.00 ZM 325.87 300.25 C328.87,302.86 331.66,305.00 332.06,305.00 C333.73,305.00 351.03,290.80 355.39,285.84 C357.98,282.90 361.76,277.15 363.80,273.05 C367.30,266.01 367.50,265.07 367.48,256.05 C367.47,247.88 367.09,245.71 364.87,241.00 C361.83,234.53 356.81,229.15 350.23,225.28 C346.00,222.79 344.55,222.50 336.50,222.51 C329.02,222.51 326.76,222.91 323.15,224.83 C312.33,230.58 304.74,241.56 303.49,253.28 C301.74,269.63 309.55,286.04 325.87,300.25 ZM 1214.06 360.15 C1217.52,361.59 1220.50,361.94 1227.55,361.71 C1235.34,361.47 1237.26,361.04 1241.34,358.65 C1260.33,347.51 1259.32,315.46 1239.65,305.26 C1232.63,301.63 1221.06,301.47 1213.29,304.91 C1201.60,310.08 1195.17,321.52 1196.31,335.10 C1197.29,346.89 1203.58,355.76 1214.06,360.15 ZM 1024.00 228.00 L 1024.00 262.00 L 990.00 262.00 L 990.00 228.00 ZM 1385.89 316.06 L 1384.01 321.00 L 1436.00 321.00 L 1435.98 318.75 C1435.92,312.53 1428.68,303.44 1421.35,300.37 C1417.53,298.78 1407.08,298.57 1401.96,299.99 C1394.86,301.97 1389.02,307.80 1385.89,316.06 Z" fill="rgb(224,110,228)"/>
<path d="M 0.00 305.50 L 0.00 0.00 L 858.00 0.00 L 1716.00 0.00 L 1716.00 305.50 L 1716.00 611.00 L 858.00 611.00 L 0.00 611.00 L 0.00 305.50 ZM 1243.14 449.47 C1247.14,448.63 1253.81,446.31 1257.96,444.32 C1267.82,439.60 1279.25,428.41 1283.84,419.00 C1289.82,406.74 1289.96,404.85 1289.98,336.25 L 1290.00 274.00 L 1273.50 274.00 L 1257.00 274.00 L 1257.00 280.13 L 1257.00 286.25 L 1252.43 282.04 C1233.76,264.83 1197.98,267.87 1177.52,288.41 C1165.46,300.51 1160.47,313.49 1160.58,332.50 C1160.69,351.67 1165.36,363.38 1177.97,376.10 C1183.63,381.82 1187.36,384.59 1193.00,387.29 C1212.46,396.57 1235.72,395.85 1250.11,385.52 L 1255.00 382.00 L 1255.00 389.84 C1255.00,404.15 1250.81,412.37 1241.30,416.72 C1226.30,423.59 1206.61,417.95 1199.95,404.89 C1198.85,402.75 1197.85,401.00 1197.72,401.00 C1197.18,401.00 1166.62,412.04 1166.31,412.35 C1166.13,412.54 1167.57,415.87 1169.51,419.75 C1180.87,442.45 1213.63,455.68 1243.14,449.47 ZM 258.57 441.94 C260.83,439.75 262.48,436.78 263.52,433.07 C269.11,413.08 280.60,391.94 295.24,374.70 C306.80,361.10 328.92,341.00 332.33,341.00 C335.76,341.00 363.96,361.04 372.39,369.48 C388.62,385.70 402.28,410.69 405.50,430.00 C406.87,438.29 412.16,443.00 420.08,443.00 C427.46,443.00 434.00,436.80 434.00,429.79 C434.00,425.03 438.19,411.51 442.09,403.70 C451.97,383.90 465.46,369.14 493.50,347.48 C513.50,332.02 526.71,319.82 534.10,310.01 C547.88,291.70 554.10,270.37 551.01,252.04 C546.23,223.69 529.12,202.40 504.12,193.66 C496.87,191.13 493.57,190.58 483.33,190.21 C468.02,189.65 459.36,191.43 446.69,197.74 C439.10,201.51 435.91,203.89 428.40,211.40 C420.71,219.08 418.55,222.00 414.54,230.12 C408.95,241.43 408.01,246.92 410.79,252.00 C412.98,256.00 419.18,259.96 423.29,259.98 C424.82,259.99 427.77,259.14 429.84,258.08 C433.58,256.17 434.18,255.28 439.50,243.75 C453.48,213.41 496.84,209.04 514.94,236.15 C523.06,248.31 525.18,263.21 520.61,276.14 C515.91,289.45 503.94,303.47 484.50,318.43 C449.02,345.73 436.18,358.40 423.25,378.85 L 419.25 385.18 L 416.08 379.64 C405.21,360.64 388.66,343.38 367.76,329.24 C358.90,323.24 356.47,321.00 358.85,321.00 C359.32,321.00 363.57,317.38 368.30,312.96 C382.68,299.51 390.02,288.24 394.10,273.35 C397.09,262.46 396.50,244.77 392.80,234.32 C387.64,219.79 377.12,207.45 364.02,200.59 C353.84,195.26 346.94,193.59 335.50,193.66 C318.48,193.76 305.39,199.67 292.65,213.00 C284.59,221.43 279.04,231.42 276.56,242.00 C274.76,249.63 274.55,263.18 276.09,271.57 C278.87,286.71 287.87,302.96 300.39,315.49 L 307.71 322.81 L 296.61 332.69 C283.71,344.15 268.32,361.64 259.80,374.50 C248.04,392.25 235.00,422.51 235.00,432.06 C235.00,443.82 250.10,450.14 258.57,441.94 ZM 733.50 400.55 C747.43,396.78 759.81,388.56 766.23,378.80 C779.45,358.71 777.17,333.74 760.71,318.34 C752.01,310.21 743.80,306.25 719.50,298.47 C707.95,294.77 696.92,290.94 695.00,289.96 C687.18,285.99 683.47,278.92 685.09,271.12 C687.21,260.97 699.02,254.91 713.64,256.48 C725.30,257.73 737.60,266.11 743.16,276.60 C744.45,279.02 745.95,280.99 746.50,280.98 C749.13,280.93 773.53,269.07 773.81,267.70 C774.24,265.52 770.00,257.53 764.55,250.28 C742.55,221.01 690.61,216.02 664.04,240.63 C644.47,258.74 643.99,291.74 663.03,309.37 C671.99,317.66 679.73,321.43 704.47,329.54 C729.38,337.72 731.27,338.53 735.33,342.80 C742.99,350.86 739.15,364.92 728.09,369.35 C710.41,376.42 685.99,366.18 675.43,347.25 C673.82,344.36 672.12,342.00 671.65,342.00 C671.18,342.00 664.54,344.77 656.88,348.16 C641.02,355.18 641.76,353.75 647.86,365.50 C652.36,374.17 662.99,385.55 671.72,391.06 C679.25,395.82 688.74,399.61 698.00,401.57 C706.25,403.31 725.31,402.76 733.50,400.55 ZM 1428.47 401.49 C1437.12,399.66 1447.85,394.61 1454.73,389.15 C1460.04,384.92 1467.01,375.76 1466.99,373.01 C1466.99,372.05 1462.14,369.22 1453.78,365.29 L 1440.58 359.09 L 1436.48 363.36 C1430.00,370.13 1424.15,372.50 1414.00,372.49 C1404.30,372.48 1397.94,370.21 1392.13,364.70 C1388.43,361.20 1384.03,352.80 1384.01,349.25 L 1384.00 347.00 L 1427.95 347.00 L 1471.91 347.00 L 1472.58 343.44 C1473.90,336.37 1472.42,317.92 1469.93,310.50 C1466.82,301.25 1458.85,289.68 1451.53,283.78 C1433.69,269.40 1404.17,266.80 1382.00,277.64 C1370.99,283.03 1359.67,294.59 1354.22,306.00 C1349.15,316.64 1347.66,323.67 1347.66,337.00 C1347.65,370.15 1368.27,395.67 1400.07,401.91 C1407.13,403.30 1420.90,403.09 1428.47,401.49 ZM 821.00 360.94 C821.00,334.48 821.38,320.39 822.17,317.25 C823.91,310.33 830.10,304.54 837.35,303.03 C848.66,300.68 857.62,304.53 862.12,313.66 C864.49,318.49 864.50,318.61 864.78,359.25 L 865.06 400.00 L 882.53 400.00 L 900.00 400.00 L 900.02 359.25 C900.04,322.00 900.20,318.16 901.86,314.49 C906.02,305.36 916.69,300.43 927.13,302.84 C934.14,304.46 937.41,307.09 940.69,313.77 L 943.50 319.50 L 943.80 359.75 L 944.10 400.00 L 961.05 400.00 L 978.00 400.00 L 978.00 354.61 C978.00,311.97 977.88,308.82 975.99,302.71 C968.82,279.50 946.76,267.20 920.89,272.00 C912.86,273.49 901.97,279.23 897.06,284.56 L 892.83 289.14 L 886.95 283.53 C883.71,280.44 878.65,276.81 875.71,275.47 C857.70,267.22 833.11,270.88 822.39,283.40 L 819.00 287.36 L 819.00 280.68 L 819.00 274.00 L 802.50 274.00 L 786.00 274.00 L 786.00 337.00 L 786.00 400.00 L 803.50 400.00 L 821.00 400.00 L 821.00 360.94 ZM 1024.00 337.00 L 1024.00 274.00 L 1007.00 274.00 L 990.00 274.00 L 990.00 337.00 L 990.00 400.00 L 1007.00 400.00 L 1024.00 400.00 L 1024.00 337.00 ZM 1073.01 360.75 C1073.01,335.45 1073.40,320.08 1074.11,317.50 C1074.81,314.92 1076.90,311.85 1080.00,308.84 C1083.86,305.09 1085.89,303.96 1090.38,303.03 C1101.96,300.62 1111.71,304.77 1116.35,314.08 L 1119.00 319.39 L 1119.00 359.70 L 1119.00 400.00 L 1136.50 400.00 L 1154.00 400.00 L 1154.00 356.64 C1154.00,331.32 1153.58,311.03 1152.98,307.89 C1149.70,290.60 1136.34,276.28 1120.00,272.57 C1101.68,268.40 1082.54,273.15 1074.25,283.93 L 1071.00 288.16 L 1071.00 281.08 L 1071.00 274.00 L 1054.50 274.00 L 1038.00 274.00 L 1038.00 337.00 L 1038.00 400.00 L 1055.50 400.00 L 1073.00 400.00 L 1073.01 360.75 ZM 1339.00 312.50 L 1339.00 225.00 L 1321.50 225.00 L 1304.00 225.00 L 1304.00 312.50 L 1304.00 400.00 L 1321.50 400.00 L 1339.00 400.00 L 1339.00 312.50 ZM 1024.00 245.00 L 1024.00 228.00 L 1007.00 228.00 L 990.00 228.00 L 990.00 245.00 L 990.00 262.00 L 1007.00 262.00 L 1024.00 262.00 L 1024.00 245.00 ZM 1214.06 360.15 C1203.58,355.76 1197.29,346.89 1196.31,335.10 C1195.17,321.52 1201.60,310.08 1213.29,304.91 C1221.06,301.47 1232.63,301.63 1239.65,305.26 C1259.32,315.46 1260.33,347.51 1241.34,358.65 C1237.26,361.04 1235.34,361.47 1227.55,361.71 C1220.50,361.94 1217.52,361.59 1214.06,360.15 ZM 325.87 300.25 C309.55,286.04 301.74,269.63 303.49,253.28 C304.74,241.56 312.33,230.58 323.15,224.83 C326.76,222.91 329.02,222.51 336.50,222.51 C344.55,222.50 346.00,222.79 350.23,225.28 C356.81,229.15 361.83,234.53 364.87,241.00 C367.09,245.71 367.47,247.88 367.48,256.05 C367.50,265.07 367.30,266.01 363.80,273.05 C361.76,277.15 357.98,282.90 355.39,285.84 C351.03,290.80 333.73,305.00 332.06,305.00 C331.66,305.00 328.87,302.86 325.87,300.25 ZM 1385.89 316.06 C1389.02,307.80 1394.86,301.97 1401.96,299.99 C1407.08,298.57 1417.53,298.78 1421.35,300.37 C1428.68,303.44 1435.92,312.53 1435.98,318.75 L 1436.00 321.00 L 1410.00 321.00 L 1384.01 321.00 L 1385.89 316.06 Z" fill="rgb(254,254,254)"/>
</g>
</svg>