<svg width="927" height="337" viewBox="0 0 927 337" fill="none" xmlns="http://www.w3.org/2000/svg">
<path d="M171 82.5C171 93.3341 168.931 104.062 164.91 114.071C160.89 124.081 154.997 133.175 147.569 140.836C140.14 148.497 131.321 154.574 121.615 158.72C111.909 162.866 101.506 165 91 165V82.5H171Z" fill="#0061D3"/>
<path d="M0 163.5C0 152.666 2.06926 141.938 6.08963 131.929C10.11 121.919 16.0028 112.825 23.4315 105.164C30.8602 97.5029 39.6793 91.4259 49.3853 87.2799C59.0914 83.1339 69.4943 81 80 81V163.5H0Z" fill="#0061D3"/>
<path d="M0 254.5C0 243.666 2.06926 232.938 6.08963 222.929C10.11 212.919 16.0028 203.825 23.4315 196.164C30.8602 188.503 39.6793 182.426 49.3853 178.28C59.0914 174.134 69.4943 172 80 172V254.5H0Z" fill="#0061D3"/>
<path d="M171 173.5C171 184.334 168.931 195.062 164.91 205.071C160.89 215.081 154.997 224.175 147.569 231.836C140.14 239.497 131.321 245.574 121.615 249.72C111.909 253.866 101.506 256 91 256V173.5H171Z" fill="#0061D3"/>
<path d="M229.311 183.251C229.406 188.018 229.978 191.926 231.027 194.977C232.171 198.028 233.601 200.459 235.317 202.27C237.128 204.081 239.178 205.321 241.466 205.988C243.754 206.655 246.137 206.989 248.616 206.989C251.285 206.989 253.764 206.512 256.052 205.559C258.34 204.606 260.342 203.128 262.058 201.126C263.774 199.029 265.109 196.312 266.062 192.975C267.015 189.638 267.492 185.539 267.492 180.677C267.492 176.006 266.968 172.049 265.919 168.808C264.966 165.471 263.679 162.802 262.058 160.8C260.437 158.703 258.483 157.177 256.195 156.224C254.002 155.271 251.714 154.794 249.331 154.794C245.804 154.794 242.753 155.366 240.179 156.51C237.7 157.654 235.651 159.275 234.03 161.372C232.409 163.469 231.218 165.996 230.455 168.951C229.692 171.811 229.311 175.005 229.311 178.532V182.107V183.251ZM229.454 115.898V153.364C232.409 149.455 235.794 146.5 239.607 144.498C243.516 142.401 248.044 141.352 253.192 141.352C258.531 141.352 263.154 142.305 267.063 144.212C270.972 146.119 274.213 148.788 276.787 152.22C279.361 155.652 281.268 159.799 282.507 164.661C283.842 169.428 284.509 174.719 284.509 180.534C284.509 186.635 283.746 192.165 282.221 197.122C280.696 201.984 278.503 206.131 275.643 209.563C272.783 212.995 269.351 215.664 265.347 217.571C261.343 219.382 256.862 220.288 251.905 220.288C247.424 220.288 243.277 219.43 239.464 217.714C235.651 215.998 232.171 213.138 229.025 209.134V218H213.295V115.898H229.454ZM334.752 207.132C341.616 207.132 346.621 204.796 349.767 200.125C353.009 195.358 354.629 188.876 354.629 180.677C354.629 172.574 353.009 166.186 349.767 161.515C346.621 156.844 341.616 154.508 334.752 154.508C327.888 154.508 322.836 156.891 319.594 161.658C316.448 166.329 314.875 172.669 314.875 180.677C314.875 188.78 316.401 195.215 319.451 199.982C322.597 204.749 327.698 207.132 334.752 207.132ZM334.609 220.288C322.979 220.288 313.97 216.856 307.582 209.992C301.195 203.128 298.001 193.404 298.001 180.82C298.001 174.909 298.812 169.523 300.432 164.661C302.148 159.799 304.579 155.652 307.725 152.22C310.871 148.788 314.732 146.119 319.308 144.212C323.884 142.305 329.08 141.352 334.895 141.352C340.806 141.352 346.049 142.353 350.625 144.355C355.201 146.262 359.015 148.931 362.065 152.363C365.211 155.795 367.547 159.942 369.072 164.804C370.693 169.571 371.503 174.814 371.503 180.534C371.503 187.017 370.598 192.737 368.786 197.694C366.975 202.556 364.401 206.703 361.064 210.135C357.823 213.472 353.962 215.998 349.481 217.714C345.001 219.43 340.043 220.288 334.609 220.288ZM403.446 143.64V154.651C406.02 150.742 409.118 147.739 412.741 145.642C416.364 143.545 420.225 142.496 424.324 142.496C425.945 142.496 427.279 142.544 428.328 142.639C429.472 142.734 430.568 142.877 431.617 143.068L429.758 157.94C428.709 157.654 427.565 157.463 426.326 157.368C425.087 157.273 423.8 157.225 422.465 157.225C419.414 157.225 416.745 157.749 414.457 158.798C412.169 159.751 410.215 161.038 408.594 162.659C407.069 164.28 405.877 166.139 405.019 168.236C404.256 170.238 403.875 172.288 403.875 174.385V218H387.716V143.64H403.446ZM492.425 179.247C492.425 174.576 491.901 170.667 490.852 167.521C489.899 164.28 488.517 161.753 486.705 159.942C484.989 158.035 482.94 156.701 480.556 155.938C478.268 155.08 475.837 154.651 473.263 154.651C467.257 154.651 462.586 156.796 459.249 161.086C456.008 165.376 454.387 171.906 454.387 180.677C454.387 185.444 454.816 189.495 455.674 192.832C456.628 196.169 457.915 198.886 459.535 200.983C461.251 203.08 463.206 204.606 465.398 205.559C467.591 206.512 469.974 206.989 472.548 206.989C478.459 206.989 483.226 205.082 486.848 201.269C490.566 197.36 492.425 191.307 492.425 183.108V179.247ZM492.568 207.704C489.518 211.899 486.038 215.045 482.129 217.142C478.316 219.239 473.835 220.288 468.687 220.288C463.349 220.288 458.725 219.335 454.816 217.428C450.908 215.521 447.666 212.852 445.092 209.42C442.518 205.893 440.564 201.746 439.229 196.979C437.99 192.117 437.37 186.778 437.37 180.963C437.37 175.529 438.038 170.476 439.372 165.805C440.707 161.038 442.661 156.939 445.235 153.507C447.809 149.98 450.955 147.167 454.673 145.07C458.487 142.973 462.872 141.829 467.829 141.638C468.783 141.543 469.736 141.543 470.689 141.638C471.643 141.638 472.644 141.686 473.692 141.781C477.029 142.162 480.223 143.116 483.273 144.641C486.419 146.071 489.422 148.502 492.282 151.934V115.898H508.441V218H492.568V207.704ZM593.151 195.978C591.816 203.7 588.527 209.706 583.284 213.996C578.041 218.191 570.509 220.288 560.69 220.288C548.869 220.288 539.86 216.904 533.663 210.135C527.562 203.271 524.511 193.642 524.511 181.249C524.511 174.862 525.369 169.189 527.085 164.232C528.896 159.275 531.375 155.128 534.521 151.791C537.762 148.359 541.576 145.785 545.961 144.069C550.442 142.258 555.351 141.352 560.69 141.352C566.41 141.352 571.367 142.258 575.562 144.069C579.757 145.785 583.236 148.264 586.001 151.505C588.766 154.651 590.815 158.464 592.15 162.945C593.485 167.33 594.152 172.24 594.152 177.674V184.824H540.813C541.004 191.593 542.72 197.074 545.961 201.269C549.202 205.464 554.112 207.561 560.69 207.561C565.838 207.561 569.699 206.56 572.273 204.558C574.847 202.556 576.563 199.696 577.421 195.978H593.151ZM578.279 173.527C578.279 167.426 576.849 162.611 573.989 159.084C571.129 155.557 566.553 153.793 560.261 153.793C554.255 153.793 549.679 155.604 546.533 159.227C543.387 162.754 541.576 167.521 541.099 173.527H578.279ZM625.766 143.64V154.651C628.34 150.742 631.439 147.739 635.061 145.642C638.684 143.545 642.545 142.496 646.644 142.496C648.265 142.496 649.6 142.544 650.648 142.639C651.792 142.734 652.889 142.877 653.937 143.068L652.078 157.94C651.03 157.654 649.886 157.463 648.646 157.368C647.407 157.273 646.12 157.225 644.785 157.225C641.735 157.225 639.065 157.749 636.777 158.798C634.489 159.751 632.535 161.038 630.914 162.659C629.389 164.28 628.197 166.139 627.339 168.236C626.577 170.238 626.195 172.288 626.195 174.385V218H610.036V143.64H625.766ZM682.62 115.898V218H666.318V115.898H682.62ZM767.432 195.978C766.098 203.7 762.809 209.706 757.565 213.996C752.322 218.191 744.791 220.288 734.971 220.288C723.15 220.288 714.141 216.904 707.944 210.135C701.843 203.271 698.792 193.642 698.792 181.249C698.792 174.862 699.65 169.189 701.366 164.232C703.178 159.275 705.656 155.128 708.802 151.791C712.044 148.359 715.857 145.785 720.242 144.069C724.723 142.258 729.633 141.352 734.971 141.352C740.691 141.352 745.649 142.258 749.843 144.069C754.038 145.785 757.518 148.264 760.282 151.505C763.047 154.651 765.097 158.464 766.431 162.945C767.766 167.33 768.433 172.24 768.433 177.674V184.824H715.094C715.285 191.593 717.001 197.074 720.242 201.269C723.484 205.464 728.393 207.561 734.971 207.561C740.119 207.561 743.98 206.56 746.554 204.558C749.128 202.556 750.844 199.696 751.702 195.978H767.432ZM752.56 173.527C752.56 167.426 751.13 162.611 748.27 159.084C745.41 155.557 740.834 153.793 734.542 153.793C728.536 153.793 723.96 155.604 720.814 159.227C717.668 162.754 715.857 167.521 715.38 173.527H752.56ZM795.471 195.263C795.757 197.742 796.425 199.791 797.473 201.412C798.522 202.937 799.809 204.177 801.334 205.13C802.955 206.083 804.814 206.751 806.911 207.132C809.009 207.418 811.249 207.561 813.632 207.561C819.066 207.561 822.975 206.751 825.358 205.13C827.742 203.509 828.933 201.126 828.933 197.98C828.933 195.501 828.171 193.404 826.645 191.688C825.215 189.972 822.212 188.733 817.636 187.97C811.726 186.921 806.53 185.92 802.049 184.967C797.569 184.014 793.803 182.727 790.752 181.106C787.702 179.39 785.414 177.245 783.888 174.671C782.363 172.002 781.6 168.427 781.6 163.946C781.6 160.514 782.363 157.416 783.888 154.651C785.414 151.791 787.511 149.408 790.18 147.501C792.945 145.499 796.186 143.974 799.904 142.925C803.718 141.876 807.865 141.352 812.345 141.352C818.065 141.352 822.832 141.924 826.645 143.068C830.459 144.212 833.557 145.785 835.94 147.787C838.324 149.789 840.135 152.077 841.374 154.651C842.614 157.225 843.567 159.942 844.234 162.802L829.648 164.804C828.504 161.086 826.741 158.321 824.357 156.51C822.069 154.699 818.208 153.793 812.774 153.793C809.628 153.793 807.054 154.079 805.052 154.651C803.05 155.223 801.43 155.938 800.19 156.796C799.046 157.654 798.236 158.607 797.759 159.656C797.378 160.705 797.187 161.753 797.187 162.802C797.187 164.423 797.378 165.757 797.759 166.806C798.141 167.855 798.808 168.713 799.761 169.38C800.81 170.047 802.192 170.619 803.908 171.096C805.624 171.573 807.769 172.049 810.343 172.526L819.638 174.099C824.596 174.957 828.695 176.053 831.936 177.388C835.273 178.723 837.895 180.391 839.801 182.393C841.803 184.3 843.186 186.54 843.948 189.114C844.711 191.688 845.092 194.548 845.092 197.694C845.092 204.463 842.518 209.944 837.37 214.139C832.222 218.238 824.405 220.288 813.918 220.288C809.628 220.288 805.481 219.859 801.477 219.001C797.569 218.238 794.041 216.904 790.895 214.997C787.749 213.09 785.175 210.564 783.173 207.418C781.267 204.177 780.17 200.125 779.884 195.263H795.471ZM871.301 195.263C871.587 197.742 872.254 199.791 873.303 201.412C874.351 202.937 875.638 204.177 877.164 205.13C878.784 206.083 880.643 206.751 882.741 207.132C884.838 207.418 887.078 207.561 889.462 207.561C894.896 207.561 898.804 206.751 901.188 205.13C903.571 203.509 904.763 201.126 904.763 197.98C904.763 195.501 904 193.404 902.475 191.688C901.045 189.972 898.042 188.733 893.466 187.97C887.555 186.921 882.359 185.92 877.879 184.967C873.398 184.014 869.632 182.727 866.582 181.106C863.531 179.39 861.243 177.245 859.718 174.671C858.192 172.002 857.43 168.427 857.43 163.946C857.43 160.514 858.192 157.416 859.718 154.651C861.243 151.791 863.34 149.408 866.01 147.501C868.774 145.499 872.016 143.974 875.734 142.925C879.547 141.876 883.694 141.352 888.175 141.352C893.895 141.352 898.661 141.924 902.475 143.068C906.288 144.212 909.386 145.785 911.77 147.787C914.153 149.789 915.964 152.077 917.204 154.651C918.443 157.225 919.396 159.942 920.064 162.802L905.478 164.804C904.334 161.086 902.57 158.321 900.187 156.51C897.899 154.699 894.038 153.793 888.604 153.793C885.458 153.793 882.884 154.079 880.882 154.651C878.88 155.223 877.259 155.938 876.02 156.796C874.876 157.654 874.065 158.607 873.589 159.656C873.207 160.705 873.017 161.753 873.017 162.802C873.017 164.423 873.207 165.757 873.589 166.806C873.97 167.855 874.637 168.713 875.591 169.38C876.639 170.047 878.022 170.619 879.738 171.096C881.454 171.573 883.599 172.049 886.173 172.526L895.468 174.099C900.425 174.957 904.524 176.053 907.766 177.388C911.102 178.723 913.724 180.391 915.631 182.393C917.633 184.3 919.015 186.54 919.778 189.114C920.54 191.688 920.922 194.548 920.922 197.694C920.922 204.463 918.348 209.944 913.2 214.139C908.052 218.238 900.234 220.288 889.748 220.288C885.458 220.288 881.311 219.859 877.307 219.001C873.398 218.238 869.871 216.904 866.725 214.997C863.579 213.09 861.005 210.564 859.003 207.418C857.096 204.177 856 200.125 855.714 195.263H871.301Z" fill="#0061D3"/>
</svg>
